<?xml version="1.0" encoding="utf-8"?>
<!-- Generator: Adobe Illustrator 16.0.0, SVG Export Plug-In . SVG Version: 6.00 Build 0)  -->
<!DOCTYPE svg PUBLIC "-//W3C//DTD SVG 1.1//EN" "http://www.w3.org/Graphics/SVG/1.1/DTD/svg11.dtd">
<svg version="1.1" id="Layer_1" xmlns="http://www.w3.org/2000/svg" xmlns:xlink="http://www.w3.org/1999/xlink" x="0px" y="0px"
	 width="250px" height="210px" viewBox="0 0 250 210" enable-background="new 0 0 250 210" xml:space="preserve">
<rect fill="none" width="250" height="210"/>
<g>
	<g>
		<g>
			<path fill="#4C4C4C" d="M22.564,185.574v-24.598h8.914c8.486,0,12.352,6.23,12.352,12.027c0,6.26-3.819,12.562-12.352,12.562
				L22.564,185.574L22.564,185.574z M25.398,182.74h6.08c6.575,0,9.518-4.904,9.518-9.766c0-4.471-2.979-9.271-9.518-9.271h-6.08
				V182.74L25.398,182.74z"/>
		</g>
		<g>
			<path fill="#4C4C4C" d="M55.056,185.857c-4.555,0-7.497-3.137-7.497-7.992v-9.551h2.656v9.516c0,3.496,2.034,5.584,5.442,5.584
				c3.195-0.035,5.513-2.488,5.513-5.832v-9.268h2.657v17.26h-2.414l-0.151-3.002l-0.412,0.518
				C59.417,184.891,57.468,185.822,55.056,185.857z"/>
		</g>
		<g>
			<path fill="#4C4C4C" d="M76.786,185.893c-4.49,0-9.02-2.771-9.02-8.949c0-5.354,3.625-8.943,9.02-8.943
				c2.361,0,4.437,0.842,6.168,2.502l-1.67,1.729c-1.175-1.096-2.781-1.721-4.427-1.721c-3.769,0-6.399,2.646-6.399,6.434
				c0,4.445,3.196,6.438,6.364,6.438c1.782,0,3.4-0.636,4.573-1.791l1.735,1.736C81.384,185.029,79.25,185.893,76.786,185.893z"/>
		</g>
		<g>
			<polygon fill="#4C4C4C" points="97.684,185.574 89.248,177.139 89.248,185.574 86.626,185.574 86.626,161.012 89.248,161.012 
				89.248,175.869 96.621,168.314 100.059,168.314 91.924,176.448 101.051,185.539 101.051,185.574 			"/>
		</g>
		<g>
			<path fill="#4C4C4C" d="M104.317,185.574v-24.598h8.913c8.486,0,12.354,6.23,12.354,12.027c0,6.26-3.814,12.562-12.354,12.562
				L104.317,185.574L104.317,185.574z M107.15,182.74h6.08c6.575,0,9.519-4.904,9.519-9.766c0-4.471-2.979-9.271-9.519-9.271h-6.08
				V182.74z"/>
		</g>
		<g>
			<path fill="#4C4C4C" d="M136.807,185.857c-4.556,0-7.496-3.137-7.496-7.992v-9.551h2.656v9.516c0,3.496,2.034,5.584,5.441,5.584
				c3.189-0.035,5.514-2.488,5.514-5.832v-9.268h2.656v17.26h-2.416l-0.15-3.002l-0.412,0.518
				C141.168,184.891,139.219,185.822,136.807,185.857z"/>
		</g>
		<g>
			<path fill="#4C4C4C" d="M158.539,185.893c-4.49,0-9.021-2.771-9.021-8.949c0-5.354,3.625-8.943,9.021-8.943
				c2.359,0,4.438,0.842,6.168,2.502l-1.67,1.729c-1.176-1.096-2.781-1.721-4.428-1.721c-3.771,0-6.398,2.646-6.398,6.434
				c0,4.445,3.197,6.438,6.363,6.438c1.781,0,3.4-0.636,4.572-1.791l1.686,1.688l-0.088,0.091l0.049,0.049
				C163.062,185.059,160.961,185.893,158.539,185.893z"/>
		</g>
		<g>
			<polygon fill="#4C4C4C" points="179.436,185.574 171,177.139 171,185.574 168.379,185.574 168.379,161.012 171,161.012 
				171,175.869 178.373,168.314 181.811,168.314 173.678,176.448 182.803,185.539 182.803,185.574 			"/>
		</g>
		<g>
			<path fill="#4C4C4C" d="M196.719,186.035c-9.457,0-12.812-6.75-12.812-12.529c-0.021-3.765,1.256-7.125,3.584-9.467
				c2.293-2.305,5.473-3.523,9.192-3.523c3.362,0,6.537,1.279,8.938,3.604l-1.604,1.869c-1.894-1.763-4.688-2.853-7.33-2.853
				c-6.854,0-9.979,5.375-9.979,10.363c0,4.908,3.104,9.873,10.051,9.873c2.527,0,4.886-0.861,6.812-2.521l0.095-0.068v-6.062
				h-7.729v-2.479h10.274v9.646C203.555,184.691,200.463,186.035,196.719,186.035z"/>
		</g>
		<g>
			<path fill="#4C4C4C" d="M218.453,185.893c-5.188,0-8.949-3.748-8.949-8.914c0-5.246,3.77-9.055,8.949-9.055
				c5.289,0,8.982,3.723,8.982,9.055C227.436,182.145,223.658,185.893,218.453,185.893z M218.486,170.332
				c-3.729,0-6.326,2.734-6.326,6.646c0,3.729,2.646,6.436,6.293,6.436c3.709,0,6.326-2.646,6.361-6.434
				C224.814,173.127,222.154,170.332,218.486,170.332z"/>
		</g>
	</g>
	<g>
		<circle fill="#FFFFFF" cx="125" cy="83.826" r="57.5"/>
		<circle fill="#DE5833" cx="125.001" cy="83.966" r="51.15"/>
		<g>
			<g>
				<g>
					<g>
						<g>
							<g>
								<g>
									<g>
										<g>
											<g>
												<g>
													<g>
														<g>
															<g>
																<g>
																	<g>
																		<defs>
																			<path id="SVGID_1_" d="M176.354,83.824c0,28.316-23.035,51.354-51.354,51.354
																				c-28.312,0-51.348-23.039-51.348-51.354c0-28.313,23.036-51.349,51.348-51.349
																				C153.316,32.475,176.354,55.511,176.354,83.824z"/>
																		</defs>
																		<clipPath id="SVGID_2_">
																			<use xlink:href="#SVGID_1_"  overflow="visible"/>
																		</clipPath>
																		<g clip-path="url(#SVGID_2_)">
																			<path fill="#D5D7D8" d="M145.962,160.158c-1.801-8.285-12.262-27.039-16.229-34.969
																				c-3.965-7.936-7.938-19.11-6.129-26.322c0.328-1.312-3.436-11.308-2.354-12.015
																				c8.416-5.489,10.632,0.599,14.002-1.862c1.733-1.273,4.09,1.047,4.688-1.06
																				c2.158-7.567-3.006-20.76-8.771-26.526c-1.885-1.879-4.771-3.06-8.029-3.687
																				c-1.255-1.713-3.275-3.36-6.139-4.879c-3.188-1.697-10.121-3.938-13.717-4.535
																				c-2.492-0.41-3.055,0.287-4.119,0.461c0.992,0.088,5.699,2.414,6.615,2.549
																				c-0.916,0.619-3.607-0.028-5.324,0.742c-0.865,0.392-1.512,1.877-1.506,2.58c4.91-0.496,12.574-0.016,17.1,2
																				c-3.602,0.41-9.08,0.867-11.436,2.105c-6.848,3.608-9.873,12.035-8.07,22.133
																				c1.805,10.075,9.738,46.85,12.263,59.129c2.524,12.264-5.408,20.189-10.455,22.354l5.407,0.363l-1.801,3.967
																				c6.484,0.719,13.695-1.438,13.695-1.438c-1.438,3.965-11.176,5.412-11.176,5.412s4.69,1.438,12.258-1.447
																				c7.578-2.883,12.263-4.688,12.263-4.688l3.604,9.373l6.854-6.85l2.885,7.215
																				C142.354,170.26,147.766,168.453,145.962,160.158z"/>
																			<path fill="#FFFFFF" d="M148.141,158.477c-1.795-8.289-12.257-27.043-16.229-34.979
																				c-3.971-7.936-7.935-19.112-6.13-26.321c0.335-1.309,0.341-6.668,1.429-7.379
																				c8.411-5.494,7.812-0.184,11.188-2.645c1.74-1.271,3.133-2.806,3.738-4.912
																				c2.163-7.572-3.007-20.76-8.773-26.529c-1.879-1.879-4.768-3.062-8.021-3.686
																				c-1.252-1.718-3.271-3.361-6.13-4.882c-5.391-2.862-12.073-4.006-18.266-2.883
																				c0.99,0.09,3.256,2.138,4.168,2.273c-1.381,0.936-5.053,0.815-5.029,2.896
																				c4.916-0.492,10.304,0.285,14.834,2.297c-3.602,0.41-6.955,1.3-9.311,2.543
																				c-6.854,3.603-8.656,10.812-6.854,20.914c1.808,10.097,9.742,46.873,12.256,59.126
																				c2.527,12.26-5.401,20.188-10.448,22.354l5.407,0.359l-1.801,3.973c6.484,0.721,13.695-1.439,13.695-1.439
																				c-1.438,3.978-11.176,5.406-11.176,5.406s4.686,1.439,12.258-1.445c7.583-2.883,12.269-4.688,12.269-4.688
																				l3.604,9.373l6.852-6.854l2.891,7.215C144.544,168.572,149.948,166.768,148.141,158.477z"/>
																			<path fill="#2D4F8E" d="M106.69,75.691c0-2.093,1.692-3.787,3.789-3.787c2.09,0,3.785,1.694,3.785,3.787
																				c0,2.094-1.695,3.786-3.785,3.786C108.383,79.478,106.69,77.785,106.69,75.691z"/>
																			<path fill="#FFFFFF" d="M111.176,74.429c0-0.545,0.441-0.983,0.98-0.983c0.543,0,0.984,0.438,0.984,0.983
																				c0,0.543-0.441,0.984-0.984,0.984C111.618,75.414,111.176,74.972,111.176,74.429z"/>
																			<path fill="#2D4F8E" d="M132.536,73.445c0-1.793,1.461-3.25,3.252-3.25c1.801,0,3.256,1.457,3.256,3.25
																				c0,1.801-1.455,3.258-3.256,3.258C133.997,76.703,132.536,75.246,132.536,73.445z"/>
																			<path fill="#FFFFFF" d="M136.395,72.363c0-0.463,0.379-0.843,0.838-0.843c0.479,0,0.849,0.38,0.849,0.843
																				c0,0.469-0.367,0.842-0.849,0.842C136.771,73.205,136.395,72.832,136.395,72.363z"/>
																			
																				<linearGradient id="SVGID_3_" gradientUnits="userSpaceOnUse" x1="3082.9873" y1="-3548.9795" x2="3091.5566" y2="-3548.9795" gradientTransform="matrix(1 0 0 -1 -2980 -3483)">
																				<stop  offset="0.0056" style="stop-color:#6176B9"/>
																				<stop  offset="0.691" style="stop-color:#394A9F"/>
																			</linearGradient>
																			<path fill="url(#SVGID_3_)" d="M111.556,64.718c0,0-2.854-1.291-5.63,0.453c-2.77,1.742-2.668,3.523-2.668,3.523
																				s-1.473-3.283,2.453-4.892C109.642,62.193,111.556,64.718,111.556,64.718z"/>
																			
																				<linearGradient id="SVGID_4_" gradientUnits="userSpaceOnUse" x1="3109.9414" y1="-3546.3711" x2="3117.7471" y2="-3546.3711" gradientTransform="matrix(1 0 0 -1 -2980 -3483)">
																				<stop  offset="0.0056" style="stop-color:#6176B9"/>
																				<stop  offset="0.691" style="stop-color:#394A9F"/>
																			</linearGradient>
																			<path fill="url(#SVGID_4_)" d="M137.747,64.458c0,0-2.052-1.172-3.644-1.152
																				c-3.271,0.043-4.162,1.488-4.162,1.488s0.55-3.445,4.729-2.754C136.941,62.417,137.747,64.458,137.747,64.458z"
																				/>
																		</g>
																	</g>
																</g>
															</g>
														</g>
													</g>
												</g>
											</g>
										</g>
									</g>
								</g>
							</g>
						</g>
					</g>
				</g>
				<path fill="#FDD20A" d="M122.069,90.295c0.379-2.291,6.299-6.625,10.49-6.887c4.201-0.265,5.51-0.205,9.01-1.043
					c3.514-0.838,12.535-3.088,15.033-4.242c2.504-1.156,13.104,0.572,5.631,4.738c-3.229,1.809-11.939,5.131-18.172,6.987
					c-6.219,1.861-9.99-1.776-12.06,1.281c-1.646,2.432-0.334,5.762,7.099,6.453c10.037,0.93,19.66-4.521,20.719-1.625
					c1.064,2.895-8.625,6.508-14.521,6.623c-5.896,0.111-17.771-3.896-19.559-5.137C123.954,96.205,121.575,93.313,122.069,90.295z"
					/>
			</g>
			<g>
				<path fill="#65BC46" d="M127.012,120.193c0,0-14.103-7.521-14.333-4.471c-0.237,3.057,0,15.51,1.644,16.45
					c1.646,0.938,13.394-6.106,13.394-6.106L127.012,120.193z"/>
				<path fill="#65BC46" d="M132.413,119.721c0,0,9.635-7.285,11.754-6.816c2.11,0.479,2.582,15.512,0.701,16.229
					c-1.882,0.69-12.908-3.813-12.908-3.813L132.413,119.721z"/>
				<path fill="#43A244" d="M123.597,120.99c0,4.932-0.707,7.049,1.41,7.521c2.107,0.474,6.104,0,7.519-0.938
					c1.41-0.938,0.231-7.279-0.231-8.466C131.814,117.934,123.597,118.875,123.597,120.99z"/>
				<path fill="#65BC46" d="M124.493,119.895c0,4.934-0.707,7.049,1.407,7.52c2.106,0.479,6.104,0,7.521-0.938
					c1.41-0.94,0.229-7.279-0.233-8.467C132.712,116.836,124.493,117.781,124.493,119.895z"/>
			</g>
		</g>
		<g>
			<path fill="#DE5833" d="M125,143.965c-33.084,0-60-26.916-60-60s26.916-60,60-60s60,26.916,60,60S158.084,143.965,125,143.965z
				 M125,28.965c-30.327,0-55,24.673-55,55c0,30.327,24.673,55,55,55s55-24.673,55-55C180,53.638,155.327,28.965,125,28.965z"/>
		</g>
	</g>
</g>
</svg>
